<svg width="296" height="63" viewBox="0 0 296 63" fill="none" xmlns="http://www.w3.org/2000/svg">
<path d="M46.8229 61.251C49.6459 61.251 51.9349 58.962 51.9349 56.139V6.11198C51.9349 3.28898 49.6459 0.999977 46.8229 0.999977C43.9999 0.999977 41.7109 3.28898 41.7109 6.11198V56.139C41.7109 58.962 43.9999 61.251 46.8229 61.251Z" fill="#78DE00"/>
<path d="M16.1973 33.7625C16.1973 36.5855 18.4863 38.8745 21.3093 38.8745H65.6163C68.4393 38.8745 70.7273 36.5855 70.7273 33.7625C70.7273 30.9395 68.4393 28.6505 65.6163 28.6505H21.3093C18.4863 28.6505 16.1973 30.9395 16.1973 33.7625Z" fill="#C7F403"/>
<path d="M2.40618 50.5289C4.40218 52.5249 7.63918 52.5249 9.63518 50.5289L50.4382 9.72588C52.4342 7.72988 52.4342 4.49388 50.4382 2.49688C48.4412 0.500877 45.2052 0.500877 43.2092 2.49688L2.40618 43.2999C0.41018 45.2959 0.41018 48.5329 2.40618 50.5289Z" fill="#78DE00"/>
<path d="M90.6694 38.8223H89.6126C89.5501 38.5183 89.4407 38.2512 89.2844 38.0211C89.131 37.791 88.9435 37.5978 88.7219 37.4416C88.5032 37.2825 88.2603 37.1632 87.9933 37.0836C87.7262 37.0041 87.4478 36.9643 87.158 36.9643C86.6296 36.9643 86.1509 37.0978 85.7219 37.3649C85.2958 37.6319 84.9563 38.0254 84.7035 38.5453C84.4535 39.0652 84.3285 39.7029 84.3285 40.4586C84.3285 41.2143 84.4535 41.8521 84.7035 42.372C84.9563 42.8919 85.2958 43.2853 85.7219 43.5524C86.1509 43.8194 86.6296 43.9529 87.158 43.9529C87.4478 43.9529 87.7262 43.9132 87.9933 43.8336C88.2603 43.7541 88.5032 43.6362 88.7219 43.4799C88.9435 43.3208 89.131 43.1262 89.2844 42.8961C89.4407 42.6632 89.5501 42.3961 89.6126 42.095H90.6694C90.5898 42.541 90.445 42.9402 90.2347 43.2924C90.0245 43.6447 89.7631 43.9444 89.4506 44.1916C89.1381 44.4359 88.7873 44.622 88.3981 44.7498C88.0117 44.8777 87.5984 44.9416 87.158 44.9416C86.4137 44.9416 85.7518 44.7598 85.1722 44.3961C84.5927 44.0325 84.1367 43.5154 83.8043 42.845C83.4719 42.1745 83.3058 41.3791 83.3058 40.4586C83.3058 39.5382 83.4719 38.7427 83.8043 38.0723C84.1367 37.4018 84.5927 36.8848 85.1722 36.5211C85.7518 36.1575 86.4137 35.9757 87.158 35.9757C87.5984 35.9757 88.0117 36.0396 88.3981 36.1674C88.7873 36.2953 89.1381 36.4828 89.4506 36.7299C89.7631 36.9743 90.0245 37.2725 90.2347 37.6248C90.445 37.9743 90.5898 38.3734 90.6694 38.8223ZM94.8999 44.9586C94.3089 44.9586 93.7905 44.818 93.3445 44.5368C92.9013 44.2555 92.5547 43.862 92.3047 43.3564C92.0575 42.8507 91.9339 42.2598 91.9339 41.5836C91.9339 40.9018 92.0575 40.3066 92.3047 39.7981C92.5547 39.2896 92.9013 38.8947 93.3445 38.6135C93.7905 38.3322 94.3089 38.1916 94.8999 38.1916C95.4908 38.1916 96.0078 38.3322 96.451 38.6135C96.897 38.8947 97.2436 39.2896 97.4908 39.7981C97.7408 40.3066 97.8658 40.9018 97.8658 41.5836C97.8658 42.2598 97.7408 42.8507 97.4908 43.3564C97.2436 43.862 96.897 44.2555 96.451 44.5368C96.0078 44.818 95.4908 44.9586 94.8999 44.9586ZM94.8999 44.0552C95.3487 44.0552 95.718 43.9402 96.0078 43.71C96.2976 43.4799 96.5121 43.1774 96.6513 42.8024C96.7905 42.4274 96.8601 42.0211 96.8601 41.5836C96.8601 41.1461 96.7905 40.7385 96.6513 40.3606C96.5121 39.9828 96.2976 39.6774 96.0078 39.4444C95.718 39.2115 95.3487 39.095 94.8999 39.095C94.451 39.095 94.0817 39.2115 93.7919 39.4444C93.5021 39.6774 93.2876 39.9828 93.1484 40.3606C93.0092 40.7385 92.9396 41.1461 92.9396 41.5836C92.9396 42.0211 93.0092 42.4274 93.1484 42.8024C93.2876 43.1774 93.5021 43.4799 93.7919 43.71C94.0817 43.9402 94.451 44.0552 94.8999 44.0552ZM100.407 40.8848V44.8223H99.4009V38.2768H100.373V39.2995H100.458C100.611 38.9672 100.844 38.7001 101.157 38.4984C101.469 38.2939 101.873 38.1916 102.367 38.1916C102.81 38.1916 103.198 38.2825 103.53 38.4643C103.863 38.6433 104.121 38.916 104.306 39.2825C104.49 39.6461 104.583 40.1064 104.583 40.6632V44.8223H103.577V40.7314C103.577 40.2172 103.444 39.8166 103.176 39.5297C102.909 39.2399 102.543 39.095 102.077 39.095C101.756 39.095 101.469 39.1646 101.216 39.3038C100.966 39.443 100.769 39.6461 100.624 39.9132C100.479 40.1802 100.407 40.5041 100.407 40.8848ZM109.267 38.2768V39.1291H105.875V38.2768H109.267ZM106.864 36.7086H107.869V42.9473C107.869 43.2314 107.911 43.4444 107.993 43.5865C108.078 43.7257 108.186 43.8194 108.317 43.8677C108.45 43.9132 108.591 43.9359 108.739 43.9359C108.849 43.9359 108.94 43.9302 109.011 43.9189C109.082 43.9047 109.139 43.8933 109.182 43.8848L109.386 44.7882C109.318 44.8137 109.223 44.8393 109.101 44.8649C108.979 44.8933 108.824 44.9075 108.636 44.9075C108.352 44.9075 108.074 44.8464 107.801 44.7243C107.531 44.6021 107.307 44.416 107.128 44.166C106.952 43.916 106.864 43.6007 106.864 43.22V36.7086ZM110.78 44.8223V38.2768H111.751V39.2654H111.82C111.939 38.9416 112.155 38.6788 112.467 38.4771C112.78 38.2754 113.132 38.1745 113.524 38.1745C113.598 38.1745 113.69 38.176 113.801 38.1788C113.912 38.1816 113.996 38.1859 114.053 38.1916V39.2143C114.018 39.2058 113.94 39.193 113.818 39.176C113.699 39.1561 113.572 39.1461 113.439 39.1461C113.121 39.1461 112.837 39.2129 112.587 39.3464C112.339 39.4771 112.143 39.6589 111.999 39.8919C111.857 40.122 111.786 40.3848 111.786 40.6802V44.8223H110.78ZM117.171 44.9757C116.756 44.9757 116.38 44.8975 116.042 44.7413C115.703 44.5822 115.435 44.3535 115.236 44.0552C115.037 43.7541 114.938 43.3904 114.938 42.9643C114.938 42.5893 115.012 42.2853 115.159 42.0524C115.307 41.8166 115.505 41.6319 115.752 41.4984C115.999 41.3649 116.272 41.2654 116.57 41.2001C116.871 41.1319 117.174 41.0779 117.478 41.0382C117.875 40.987 118.198 40.9487 118.445 40.9231C118.695 40.8947 118.877 40.8478 118.99 40.7825C119.107 40.7172 119.165 40.6035 119.165 40.4416V40.4075C119.165 39.987 119.05 39.6603 118.82 39.4274C118.593 39.1944 118.248 39.0779 117.784 39.0779C117.304 39.0779 116.928 39.1831 116.655 39.3933C116.382 39.6035 116.191 39.8279 116.08 40.0666L115.125 39.7257C115.296 39.3279 115.523 39.0183 115.807 38.7967C116.094 38.5723 116.407 38.416 116.745 38.3279C117.086 38.237 117.421 38.1916 117.75 38.1916C117.961 38.1916 118.202 38.2172 118.475 38.2683C118.75 38.3166 119.016 38.4174 119.272 38.5708C119.53 38.7243 119.745 38.9558 119.915 39.2654C120.086 39.5751 120.171 39.9899 120.171 40.5098V44.8223H119.165V43.9359H119.114C119.046 44.0779 118.932 44.2299 118.773 44.3919C118.614 44.5538 118.402 44.6916 118.138 44.8052C117.874 44.9189 117.551 44.9757 117.171 44.9757ZM117.324 44.0723C117.722 44.0723 118.057 43.9941 118.33 43.8379C118.605 43.6816 118.813 43.4799 118.952 43.2328C119.094 42.9856 119.165 42.7257 119.165 42.4529V41.5325C119.123 41.5836 119.029 41.6305 118.884 41.6731C118.742 41.7129 118.577 41.7484 118.39 41.7797C118.205 41.8081 118.025 41.8336 117.848 41.8564C117.675 41.8762 117.534 41.8933 117.426 41.9075C117.165 41.9416 116.921 41.997 116.694 42.0737C116.469 42.1475 116.287 42.2598 116.148 42.4103C116.012 42.5581 115.944 42.7598 115.944 43.0154C115.944 43.3649 116.073 43.6291 116.331 43.8081C116.593 43.9842 116.924 44.0723 117.324 44.0723ZM124.665 44.9586C124.052 44.9586 123.523 44.8137 123.08 44.524C122.637 44.2342 122.296 43.835 122.058 43.3265C121.819 42.818 121.7 42.237 121.7 41.5836C121.7 40.9189 121.822 40.3322 122.066 39.8237C122.313 39.3123 122.657 38.9132 123.097 38.6262C123.54 38.3365 124.058 38.1916 124.648 38.1916C125.109 38.1916 125.523 38.2768 125.893 38.4473C126.262 38.6177 126.565 38.8564 126.8 39.1632C127.036 39.47 127.183 39.8279 127.239 40.237H126.234C126.157 39.9387 125.987 39.6745 125.722 39.4444C125.461 39.2115 125.109 39.095 124.665 39.095C124.273 39.095 123.93 39.1973 123.634 39.4018C123.342 39.6035 123.113 39.889 122.948 40.2583C122.786 40.6248 122.705 41.0552 122.705 41.5495C122.705 42.0552 122.785 42.4956 122.944 42.8706C123.106 43.2456 123.333 43.5368 123.626 43.7441C123.921 43.9515 124.268 44.0552 124.665 44.0552C124.927 44.0552 125.164 44.0098 125.377 43.9189C125.59 43.8279 125.771 43.6973 125.918 43.5268C126.066 43.3564 126.171 43.1518 126.234 42.9132H127.239C127.183 43.2995 127.042 43.6475 126.817 43.9572C126.596 44.264 126.302 44.5083 125.935 44.6902C125.572 44.8691 125.148 44.9586 124.665 44.9586ZM131.556 38.2768V39.1291H128.164V38.2768H131.556ZM129.153 36.7086H130.158V42.9473C130.158 43.2314 130.2 43.4444 130.282 43.5865C130.367 43.7257 130.475 43.8194 130.606 43.8677C130.739 43.9132 130.88 43.9359 131.028 43.9359C131.138 43.9359 131.229 43.9302 131.3 43.9189C131.371 43.9047 131.428 43.8933 131.471 43.8848L131.675 44.7882C131.607 44.8137 131.512 44.8393 131.39 44.8649C131.268 44.8933 131.113 44.9075 130.925 44.9075C130.641 44.9075 130.363 44.8464 130.09 44.7243C129.82 44.6021 129.596 44.416 129.417 44.166C129.241 43.916 129.153 43.6007 129.153 43.22V36.7086ZM136.58 44.8223V36.095H137.637V43.8848H141.694V44.8223H136.58ZM143.194 44.8223V38.2768H144.2V44.8223H143.194ZM143.705 37.1859C143.509 37.1859 143.34 37.1191 143.198 36.9856C143.059 36.8521 142.989 36.6916 142.989 36.5041C142.989 36.3166 143.059 36.1561 143.198 36.0225C143.34 35.889 143.509 35.8223 143.705 35.8223C143.901 35.8223 144.069 35.889 144.208 36.0225C144.35 36.1561 144.421 36.3166 144.421 36.5041C144.421 36.6916 144.35 36.8521 144.208 36.9856C144.069 37.1191 143.901 37.1859 143.705 37.1859ZM148.956 38.2768V39.1291H145.428V38.2768H148.956ZM146.485 44.8223V37.3734C146.485 36.9984 146.573 36.6859 146.749 36.4359C146.925 36.1859 147.154 35.9984 147.435 35.8734C147.716 35.7484 148.013 35.6859 148.326 35.6859C148.573 35.6859 148.775 35.7058 148.931 35.7456C149.087 35.7853 149.203 35.8223 149.28 35.8564L148.99 36.7257C148.939 36.7086 148.868 36.6873 148.777 36.6618C148.689 36.6362 148.573 36.6234 148.428 36.6234C148.096 36.6234 147.855 36.7072 147.708 36.8748C147.563 37.0424 147.49 37.2882 147.49 37.612V44.8223H146.485ZM152.841 44.9586C152.21 44.9586 151.666 44.8194 151.208 44.541C150.754 44.2598 150.403 43.8677 150.156 43.3649C149.912 42.8592 149.789 42.2711 149.789 41.6007C149.789 40.9302 149.912 40.3393 150.156 39.8279C150.403 39.3137 150.747 38.9132 151.187 38.6262C151.63 38.3365 152.147 38.1916 152.738 38.1916C153.079 38.1916 153.416 38.2484 153.748 38.362C154.081 38.4757 154.383 38.6603 154.656 38.916C154.929 39.1689 155.146 39.5041 155.308 39.9217C155.47 40.3393 155.551 40.8535 155.551 41.4643V41.8904H150.505V41.0211H154.528C154.528 40.6518 154.454 40.3223 154.306 40.0325C154.162 39.7427 153.954 39.514 153.684 39.3464C153.417 39.1788 153.102 39.095 152.738 39.095C152.338 39.095 151.991 39.1944 151.699 39.3933C151.409 39.5893 151.186 39.845 151.029 40.1603C150.873 40.4757 150.795 40.8137 150.795 41.1745V41.7541C150.795 42.2484 150.88 42.6674 151.051 43.0112C151.224 43.3521 151.464 43.612 151.771 43.791C152.078 43.9672 152.434 44.0552 152.841 44.0552C153.105 44.0552 153.343 44.0183 153.556 43.9444C153.772 43.8677 153.958 43.7541 154.115 43.6035C154.271 43.4501 154.392 43.2598 154.477 43.0325L155.449 43.3052C155.346 43.6348 155.174 43.9245 154.933 44.1745C154.691 44.4217 154.393 44.6149 154.038 44.7541C153.683 44.8904 153.284 44.9586 152.841 44.9586ZM159.74 44.9586C159.126 44.9586 158.598 44.8137 158.154 44.524C157.711 44.2342 157.37 43.835 157.132 43.3265C156.893 42.818 156.774 42.237 156.774 41.5836C156.774 40.9189 156.896 40.3322 157.14 39.8237C157.387 39.3123 157.731 38.9132 158.172 38.6262C158.615 38.3365 159.132 38.1916 159.723 38.1916C160.183 38.1916 160.598 38.2768 160.967 38.4473C161.336 38.6177 161.639 38.8564 161.875 39.1632C162.11 39.47 162.257 39.8279 162.314 40.237H161.308C161.231 39.9387 161.061 39.6745 160.797 39.4444C160.535 39.2115 160.183 39.095 159.74 39.095C159.348 39.095 159.004 39.1973 158.708 39.4018C158.416 39.6035 158.187 39.889 158.022 40.2583C157.86 40.6248 157.779 41.0552 157.779 41.5495C157.779 42.0552 157.859 42.4956 158.018 42.8706C158.18 43.2456 158.407 43.5368 158.7 43.7441C158.995 43.9515 159.342 44.0552 159.74 44.0552C160.001 44.0552 160.238 44.0098 160.451 43.9189C160.664 43.8279 160.845 43.6973 160.993 43.5268C161.14 43.3564 161.245 43.1518 161.308 42.9132H162.314C162.257 43.2995 162.116 43.6475 161.892 43.9572C161.67 44.264 161.376 44.5083 161.01 44.6902C160.646 44.8691 160.223 44.9586 159.74 44.9586ZM164.431 47.2768C164.261 47.2768 164.109 47.2626 163.975 47.2342C163.842 47.2086 163.75 47.1831 163.699 47.1575L163.954 46.2711C164.199 46.3336 164.414 46.3564 164.602 46.3393C164.789 46.3223 164.956 46.2385 165.1 46.0879C165.248 45.9402 165.383 45.7001 165.505 45.3677L165.693 44.8564L163.272 38.2768H164.363L166.17 43.4927H166.238L168.045 38.2768H169.136L166.358 45.7768C166.233 46.1149 166.078 46.3947 165.893 46.6163C165.708 46.8407 165.494 47.0069 165.25 47.1149C165.008 47.2228 164.735 47.2768 164.431 47.2768ZM172.888 44.9586C172.275 44.9586 171.746 44.8137 171.303 44.524C170.86 44.2342 170.519 43.835 170.28 43.3265C170.042 42.818 169.922 42.237 169.922 41.5836C169.922 40.9189 170.044 40.3322 170.289 39.8237C170.536 39.3123 170.88 38.9132 171.32 38.6262C171.763 38.3365 172.28 38.1916 172.871 38.1916C173.331 38.1916 173.746 38.2768 174.115 38.4473C174.485 38.6177 174.787 38.8564 175.023 39.1632C175.259 39.47 175.405 39.8279 175.462 40.237H174.456C174.38 39.9387 174.209 39.6745 173.945 39.4444C173.684 39.2115 173.331 39.095 172.888 39.095C172.496 39.095 172.152 39.1973 171.857 39.4018C171.564 39.6035 171.336 39.889 171.171 40.2583C171.009 40.6248 170.928 41.0552 170.928 41.5495C170.928 42.0552 171.007 42.4956 171.167 42.8706C171.328 43.2456 171.556 43.5368 171.848 43.7441C172.144 43.9515 172.49 44.0552 172.888 44.0552C173.15 44.0552 173.387 44.0098 173.6 43.9189C173.813 43.8279 173.993 43.6973 174.141 43.5268C174.289 43.3564 174.394 43.1518 174.456 42.9132H175.462C175.405 43.2995 175.265 43.6475 175.04 43.9572C174.819 44.264 174.525 44.5083 174.158 44.6902C173.794 44.8691 173.371 44.9586 172.888 44.9586ZM177.938 36.095V44.8223H176.932V36.095H177.938ZM182.524 44.9586C181.893 44.9586 181.349 44.8194 180.892 44.541C180.438 44.2598 180.087 43.8677 179.839 43.3649C179.595 42.8592 179.473 42.2711 179.473 41.6007C179.473 40.9302 179.595 40.3393 179.839 39.8279C180.087 39.3137 180.43 38.9132 180.871 38.6262C181.314 38.3365 181.831 38.1916 182.422 38.1916C182.763 38.1916 183.099 38.2484 183.432 38.362C183.764 38.4757 184.067 38.6603 184.339 38.916C184.612 39.1689 184.83 39.5041 184.991 39.9217C185.153 40.3393 185.234 40.8535 185.234 41.4643V41.8904H180.189V41.0211H184.212C184.212 40.6518 184.138 40.3223 183.99 40.0325C183.845 39.7427 183.638 39.514 183.368 39.3464C183.101 39.1788 182.786 39.095 182.422 39.095C182.021 39.095 181.675 39.1944 181.382 39.3933C181.092 39.5893 180.869 39.845 180.713 40.1603C180.557 40.4757 180.479 40.8137 180.479 41.1745V41.7541C180.479 42.2484 180.564 42.6674 180.734 43.0112C180.908 43.3521 181.148 43.612 181.455 43.791C181.761 43.9672 182.118 44.0552 182.524 44.0552C182.788 44.0552 183.027 44.0183 183.24 43.9444C183.456 43.8677 183.642 43.7541 183.798 43.6035C183.955 43.4501 184.075 43.2598 184.161 43.0325L185.132 43.3052C185.03 43.6348 184.858 43.9245 184.616 44.1745C184.375 44.4217 184.077 44.6149 183.722 44.7541C183.366 44.8904 182.967 44.9586 182.524 44.9586ZM83.6467 51.095H84.908L87.8739 58.3393H87.9762L90.9421 51.095H92.2035V59.8223H91.2148V53.1916H91.1296L88.4023 59.8223H87.4478L84.7205 53.1916H84.6353V59.8223H83.6467V51.095ZM96.1122 59.9757C95.6974 59.9757 95.321 59.8975 94.983 59.7413C94.6449 59.5822 94.3764 59.3535 94.1776 59.0552C93.9787 58.7541 93.8793 58.3904 93.8793 57.9643C93.8793 57.5893 93.9531 57.2853 94.1009 57.0524C94.2486 56.8166 94.446 56.6319 94.6932 56.4984C94.9403 56.3649 95.2131 56.2654 95.5114 56.2001C95.8125 56.1319 96.1151 56.0779 96.419 56.0382C96.8168 55.987 97.1392 55.9487 97.3864 55.9231C97.6364 55.8947 97.8182 55.8478 97.9318 55.7825C98.0483 55.7172 98.1065 55.6035 98.1065 55.4416V55.4075C98.1065 54.987 97.9915 54.6603 97.7614 54.4274C97.5341 54.1944 97.1889 54.0779 96.7259 54.0779C96.2457 54.0779 95.8693 54.1831 95.5966 54.3933C95.3239 54.6035 95.1321 54.8279 95.0213 55.0666L94.0668 54.7257C94.2372 54.3279 94.4645 54.0183 94.7486 53.7967C95.0355 53.5723 95.348 53.416 95.6861 53.3279C96.027 53.237 96.3622 53.1916 96.6918 53.1916C96.902 53.1916 97.1435 53.2172 97.4162 53.2683C97.6918 53.3166 97.9574 53.4174 98.2131 53.5708C98.4716 53.7243 98.6861 53.9558 98.8565 54.2654C99.027 54.5751 99.1122 54.9899 99.1122 55.5098V59.8223H98.1065V58.9359H98.0554C97.9872 59.0779 97.8736 59.2299 97.7145 59.3919C97.5554 59.5538 97.3438 59.6916 97.0795 59.8052C96.8153 59.9189 96.4929 59.9757 96.1122 59.9757ZM96.2656 59.0723C96.6634 59.0723 96.9986 58.9941 97.2713 58.8379C97.5469 58.6816 97.7543 58.4799 97.8935 58.2328C98.0355 57.9856 98.1065 57.7257 98.1065 57.4529V56.5325C98.0639 56.5836 97.9702 56.6305 97.8253 56.6731C97.6832 56.7129 97.5185 56.7484 97.331 56.7797C97.1463 56.8081 96.9659 56.8336 96.7898 56.8564C96.6165 56.8762 96.4759 56.8933 96.3679 56.9075C96.1065 56.9416 95.8622 56.997 95.6349 57.0737C95.4105 57.1475 95.2287 57.2598 95.0895 57.4103C94.9531 57.5581 94.8849 57.7598 94.8849 58.0154C94.8849 58.3649 95.0142 58.6291 95.2727 58.8081C95.5341 58.9842 95.8651 59.0723 96.2656 59.0723ZM101.953 55.8848V59.8223H100.948V53.2768H101.919V54.2995H102.005C102.158 53.9672 102.391 53.7001 102.703 53.4984C103.016 53.2939 103.419 53.1916 103.914 53.1916C104.357 53.1916 104.745 53.2825 105.077 53.4643C105.409 53.6433 105.668 53.916 105.853 54.2825C106.037 54.6461 106.13 55.1064 106.13 55.6632V59.8223H105.124V55.7314C105.124 55.2172 104.99 54.8166 104.723 54.5297C104.456 54.2399 104.09 54.095 103.624 54.095C103.303 54.095 103.016 54.1646 102.763 54.3038C102.513 54.443 102.316 54.6461 102.171 54.9132C102.026 55.1802 101.953 55.5041 101.953 55.8848ZM109.893 59.9757C109.479 59.9757 109.102 59.8975 108.764 59.7413C108.426 59.5822 108.158 59.3535 107.959 59.0552C107.76 58.7541 107.661 58.3904 107.661 57.9643C107.661 57.5893 107.734 57.2853 107.882 57.0524C108.03 56.8166 108.227 56.6319 108.474 56.4984C108.722 56.3649 108.994 56.2654 109.293 56.2001C109.594 56.1319 109.896 56.0779 110.2 56.0382C110.598 55.987 110.92 55.9487 111.168 55.9231C111.418 55.8947 111.599 55.8478 111.713 55.7825C111.83 55.7172 111.888 55.6035 111.888 55.4416V55.4075C111.888 54.987 111.773 54.6603 111.543 54.4274C111.315 54.1944 110.97 54.0779 110.507 54.0779C110.027 54.0779 109.651 54.1831 109.378 54.3933C109.105 54.6035 108.913 54.8279 108.803 55.0666L107.848 54.7257C108.018 54.3279 108.246 54.0183 108.53 53.7967C108.817 53.5723 109.129 53.416 109.467 53.3279C109.808 53.237 110.143 53.1916 110.473 53.1916C110.683 53.1916 110.925 53.2172 111.197 53.2683C111.473 53.3166 111.739 53.4174 111.994 53.5708C112.253 53.7243 112.467 53.9558 112.638 54.2654C112.808 54.5751 112.893 54.9899 112.893 55.5098V59.8223H111.888V58.9359H111.837C111.768 59.0779 111.655 59.2299 111.496 59.3919C111.337 59.5538 111.125 59.6916 110.861 59.8052C110.597 59.9189 110.274 59.9757 109.893 59.9757ZM110.047 59.0723C110.445 59.0723 110.78 58.9941 111.053 58.8379C111.328 58.6816 111.536 58.4799 111.675 58.2328C111.817 57.9856 111.888 57.7257 111.888 57.4529V56.5325C111.845 56.5836 111.751 56.6305 111.607 56.6731C111.464 56.7129 111.3 56.7484 111.112 56.7797C110.928 56.8081 110.747 56.8336 110.571 56.8564C110.398 56.8762 110.257 56.8933 110.149 56.9075C109.888 56.9416 109.643 56.997 109.416 57.0737C109.192 57.1475 109.01 57.2598 108.871 57.4103C108.734 57.5581 108.666 57.7598 108.666 58.0154C108.666 58.3649 108.795 58.6291 109.054 58.8081C109.315 58.9842 109.646 59.0723 110.047 59.0723ZM117.371 62.4132C116.885 62.4132 116.468 62.3507 116.118 62.2257C115.769 62.1035 115.478 61.9416 115.245 61.7399C115.015 61.541 114.831 61.3279 114.695 61.1007L115.496 60.5382C115.587 60.6575 115.702 60.7939 115.841 60.9473C115.98 61.1035 116.171 61.2385 116.412 61.3521C116.657 61.4686 116.976 61.5268 117.371 61.5268C117.9 61.5268 118.336 61.399 118.679 61.1433C119.023 60.8876 119.195 60.487 119.195 59.9416V58.612H119.11C119.036 58.7314 118.931 58.8791 118.794 59.0552C118.661 59.2285 118.468 59.3833 118.215 59.5197C117.965 59.6532 117.627 59.72 117.201 59.72C116.672 59.72 116.198 59.595 115.777 59.345C115.36 59.095 115.029 58.7314 114.784 58.2541C114.543 57.7768 114.422 57.1973 114.422 56.5154C114.422 55.845 114.54 55.2612 114.776 54.764C115.012 54.264 115.34 53.8777 115.76 53.6049C116.181 53.3294 116.667 53.1916 117.218 53.1916C117.644 53.1916 117.982 53.2626 118.232 53.4047C118.485 53.5439 118.678 53.7029 118.811 53.8819C118.948 54.0581 119.053 54.2029 119.127 54.3166H119.229V53.2768H120.201V60.0098C120.201 60.5723 120.073 61.0297 119.817 61.3819C119.564 61.737 119.223 61.997 118.794 62.1618C118.368 62.3294 117.894 62.4132 117.371 62.4132ZM117.337 58.8166C117.74 58.8166 118.081 58.7243 118.36 58.5396C118.638 58.3549 118.85 58.0893 118.995 57.7427C119.14 57.3961 119.212 56.9814 119.212 56.4984C119.212 56.0268 119.141 55.6106 118.999 55.2498C118.857 54.889 118.647 54.6064 118.368 54.4018C118.09 54.1973 117.746 54.095 117.337 54.095C116.911 54.095 116.556 54.2029 116.272 54.4189C115.99 54.6348 115.779 54.9245 115.637 55.2882C115.498 55.6518 115.428 56.0552 115.428 56.4984C115.428 56.9529 115.499 57.3549 115.641 57.7044C115.786 58.051 115.999 58.3237 116.28 58.5225C116.564 58.7186 116.917 58.8166 117.337 58.8166ZM124.786 59.9586C124.155 59.9586 123.611 59.8194 123.154 59.541C122.699 59.2598 122.348 58.8677 122.101 58.3649C121.857 57.8592 121.735 57.2711 121.735 56.6007C121.735 55.9302 121.857 55.3393 122.101 54.8279C122.348 54.3137 122.692 53.9132 123.132 53.6262C123.576 53.3365 124.093 53.1916 124.684 53.1916C125.025 53.1916 125.361 53.2484 125.694 53.362C126.026 53.4757 126.328 53.6603 126.601 53.916C126.874 54.1689 127.091 54.5041 127.253 54.9217C127.415 55.3393 127.496 55.8535 127.496 56.4643V56.8904H122.451V56.0211H126.473C126.473 55.6518 126.4 55.3223 126.252 55.0325C126.107 54.7427 125.9 54.514 125.63 54.3464C125.363 54.1788 125.047 54.095 124.684 54.095C124.283 54.095 123.936 54.1944 123.644 54.3933C123.354 54.5893 123.131 54.845 122.975 55.1603C122.819 55.4757 122.74 55.8137 122.74 56.1745V56.7541C122.74 57.2484 122.826 57.6674 122.996 58.0112C123.169 58.3521 123.409 58.612 123.716 58.791C124.023 58.9672 124.38 59.0552 124.786 59.0552C125.05 59.0552 125.289 59.0183 125.502 58.9444C125.718 58.8677 125.904 58.7541 126.06 58.6035C126.216 58.4501 126.337 58.2598 126.422 58.0325L127.394 58.3052C127.292 58.6348 127.12 58.9245 126.878 59.1745C126.637 59.4217 126.338 59.6149 125.983 59.7541C125.628 59.8904 125.229 59.9586 124.786 59.9586ZM129.026 59.8223V53.2768H129.998V54.2995H130.083C130.219 53.9501 130.439 53.6788 130.743 53.4856C131.047 53.2896 131.412 53.1916 131.838 53.1916C132.27 53.1916 132.63 53.2896 132.917 53.4856C133.206 53.6788 133.432 53.9501 133.594 54.2995H133.662C133.83 53.9615 134.081 53.693 134.417 53.4941C134.752 53.2924 135.154 53.1916 135.623 53.1916C136.208 53.1916 136.686 53.3748 137.059 53.7413C137.431 54.1049 137.617 54.6717 137.617 55.4416V59.8223H136.611V55.4416C136.611 54.9586 136.479 54.6135 136.215 54.4061C135.951 54.1987 135.64 54.095 135.282 54.095C134.821 54.095 134.465 54.2342 134.212 54.5126C133.959 54.7882 133.833 55.1376 133.833 55.5609V59.8223H132.81V55.3393C132.81 54.9672 132.689 54.6674 132.448 54.4402C132.206 54.21 131.895 54.095 131.515 54.095C131.253 54.095 131.009 54.1646 130.782 54.3038C130.557 54.443 130.375 54.6362 130.236 54.8833C130.1 55.1277 130.032 55.4103 130.032 55.7314V59.8223H129.026ZM142.2 59.9586C141.569 59.9586 141.025 59.8194 140.568 59.541C140.113 59.2598 139.762 58.8677 139.515 58.3649C139.271 57.8592 139.149 57.2711 139.149 56.6007C139.149 55.9302 139.271 55.3393 139.515 54.8279C139.762 54.3137 140.106 53.9132 140.547 53.6262C140.99 53.3365 141.507 53.1916 142.098 53.1916C142.439 53.1916 142.775 53.2484 143.108 53.362C143.44 53.4757 143.743 53.6603 144.015 53.916C144.288 54.1689 144.505 54.5041 144.667 54.9217C144.829 55.3393 144.91 55.8535 144.91 56.4643V56.8904H139.865V56.0211H143.887C143.887 55.6518 143.814 55.3223 143.666 55.0325C143.521 54.7427 143.314 54.514 143.044 54.3464C142.777 54.1788 142.461 54.095 142.098 54.095C141.697 54.095 141.35 54.1944 141.058 54.3933C140.768 54.5893 140.545 54.845 140.389 55.1603C140.233 55.4757 140.154 55.8137 140.154 56.1745V56.7541C140.154 57.2484 140.24 57.6674 140.41 58.0112C140.583 58.3521 140.824 58.612 141.13 58.791C141.437 58.9672 141.794 59.0552 142.2 59.0552C142.464 59.0552 142.703 59.0183 142.916 58.9444C143.132 58.8677 143.318 58.7541 143.474 58.6035C143.63 58.4501 143.751 58.2598 143.836 58.0325L144.808 58.3052C144.706 58.6348 144.534 58.9245 144.292 59.1745C144.051 59.4217 143.752 59.6149 143.397 59.7541C143.042 59.8904 142.643 59.9586 142.2 59.9586ZM147.446 55.8848V59.8223H146.44V53.2768H147.412V54.2995H147.497C147.65 53.9672 147.883 53.7001 148.196 53.4984C148.508 53.2939 148.912 53.1916 149.406 53.1916C149.849 53.1916 150.237 53.2825 150.569 53.4643C150.902 53.6433 151.16 53.916 151.345 54.2825C151.529 54.6461 151.622 55.1064 151.622 55.6632V59.8223H150.616V55.7314C150.616 55.2172 150.483 54.8166 150.216 54.5297C149.949 54.2399 149.582 54.095 149.116 54.095C148.795 54.095 148.508 54.1646 148.255 54.3038C148.005 54.443 147.808 54.6461 147.663 54.9132C147.518 55.1802 147.446 55.5041 147.446 55.8848ZM156.306 53.2768V54.1291H152.914V53.2768H156.306ZM153.903 51.7086H154.908V57.9473C154.908 58.2314 154.95 58.4444 155.032 58.5865C155.117 58.7257 155.225 58.8194 155.356 58.8677C155.489 58.9132 155.63 58.9359 155.778 58.9359C155.888 58.9359 155.979 58.9302 156.05 58.9189C156.121 58.9047 156.178 58.8933 156.221 58.8848L156.425 59.7882C156.357 59.8137 156.262 59.8393 156.14 59.8649C156.018 59.8933 155.863 59.9075 155.675 59.9075C155.391 59.9075 155.113 59.8464 154.84 59.7243C154.57 59.6021 154.346 59.416 154.167 59.166C153.991 58.916 153.903 58.6007 153.903 58.22V51.7086Z" fill="white"/>
<path d="M102.291 30C102.032 30 101.863 29.8702 101.785 29.6106L100.617 25.795C100.565 25.6911 100.5 25.6392 100.422 25.6392H90.8442C90.7663 25.6392 90.7014 25.6911 90.6495 25.795L89.5204 29.6106C89.4425 29.8702 89.2738 30 89.0142 30H84.0694C83.9137 30 83.7968 29.9611 83.719 29.8832C83.6411 29.7794 83.6281 29.6366 83.68 29.4549L92.0901 3.1345C92.168 2.87493 92.3367 2.74515 92.5963 2.74515H98.7091C98.9687 2.74515 99.1374 2.87493 99.2153 3.1345L107.625 29.4549C107.651 29.5068 107.664 29.5717 107.664 29.6496C107.664 29.8832 107.522 30 107.236 30H102.291ZM92.0512 21.1616C92.0252 21.3174 92.0771 21.3953 92.2069 21.3953H99.0596C99.2153 21.3953 99.2672 21.3174 99.2153 21.1616L95.7111 9.5978C95.6852 9.49397 95.6462 9.45503 95.5943 9.48099C95.5424 9.48099 95.5035 9.51993 95.4775 9.5978L92.0512 21.1616ZM120.444 30.3115C118.445 30.3115 116.68 29.9221 115.149 29.1434C113.643 28.3647 112.462 27.2745 111.606 25.8728C110.775 24.4452 110.36 22.8099 110.36 20.967V3.21237C110.36 3.08259 110.399 2.97876 110.476 2.90089C110.58 2.79706 110.697 2.74515 110.827 2.74515H115.382C115.512 2.74515 115.616 2.79706 115.694 2.90089C115.798 2.97876 115.85 3.08259 115.85 3.21237V21.0059C115.85 22.3816 116.265 23.4978 117.096 24.3544C117.952 25.185 119.068 25.6003 120.444 25.6003C121.82 25.6003 122.923 25.185 123.753 24.3544C124.61 23.4978 125.038 22.3816 125.038 21.0059V3.21237C125.038 3.08259 125.077 2.97876 125.155 2.90089C125.259 2.79706 125.376 2.74515 125.506 2.74515H130.061C130.191 2.74515 130.295 2.79706 130.373 2.90089C130.476 2.97876 130.528 3.08259 130.528 3.21237V20.967C130.528 22.8099 130.1 24.4452 129.243 25.8728C128.413 27.2745 127.232 28.3647 125.7 29.1434C124.195 29.9221 122.443 30.3115 120.444 30.3115ZM144.391 30.3115C142.366 30.3115 140.588 29.9221 139.057 29.1434C137.526 28.3388 136.344 27.2226 135.514 25.795C134.683 24.3673 134.268 22.7191 134.268 20.8502V11.8561C134.268 9.98715 134.683 8.33888 135.514 6.91125C136.344 5.48361 137.526 4.38044 139.057 3.60173C140.588 2.82302 142.366 2.43367 144.391 2.43367C146.39 2.43367 148.142 2.81004 149.647 3.56279C151.179 4.28959 152.36 5.34085 153.191 6.71657C154.047 8.06633 154.475 9.63673 154.475 11.4278C154.475 11.6614 154.32 11.8041 154.008 11.8561L149.453 12.1286H149.375C149.115 12.1286 148.986 11.9858 148.986 11.7003C148.986 10.3246 148.557 9.22142 147.701 8.3908C146.87 7.56017 145.767 7.14486 144.391 7.14486C142.989 7.14486 141.86 7.56017 141.004 8.3908C140.173 9.22142 139.758 10.3246 139.758 11.7003V21.0838C139.758 22.4335 140.173 23.5237 141.004 24.3544C141.86 25.185 142.989 25.6003 144.391 25.6003C145.767 25.6003 146.87 25.185 147.701 24.3544C148.557 23.5237 148.986 22.4335 148.986 21.0838C148.986 20.7982 149.141 20.6555 149.453 20.6555L154.008 20.8502C154.138 20.8502 154.242 20.8891 154.32 20.967C154.424 21.0448 154.475 21.1357 154.475 21.2395C154.475 23.0305 154.047 24.6139 153.191 25.9896C152.36 27.3654 151.179 28.4296 149.647 29.1824C148.142 29.9351 146.39 30.3115 144.391 30.3115ZM177.003 2.74515C177.133 2.74515 177.237 2.79706 177.314 2.90089C177.418 2.97876 177.47 3.08259 177.47 3.21237V7.02805C177.47 7.15784 177.418 7.27464 177.314 7.37847C177.237 7.45634 177.133 7.49528 177.003 7.49528H170.034C169.904 7.49528 169.839 7.56017 169.839 7.68996V29.5328C169.839 29.6626 169.787 29.7794 169.683 29.8832C169.605 29.9611 169.501 30 169.372 30H164.816C164.686 30 164.57 29.9611 164.466 29.8832C164.388 29.7794 164.349 29.6626 164.349 29.5328V7.68996C164.349 7.56017 164.284 7.49528 164.154 7.49528H157.379C157.25 7.49528 157.133 7.45634 157.029 7.37847C156.951 7.27464 156.912 7.15784 156.912 7.02805V3.21237C156.912 3.08259 156.951 2.97876 157.029 2.90089C157.133 2.79706 157.25 2.74515 157.379 2.74515H177.003ZM195.79 30C195.53 30 195.361 29.8702 195.283 29.6106L194.115 25.795C194.064 25.6911 193.999 25.6392 193.921 25.6392H184.343C184.265 25.6392 184.2 25.6911 184.148 25.795L183.019 29.6106C182.941 29.8702 182.772 30 182.513 30H177.568C177.412 30 177.295 29.9611 177.217 29.8832C177.14 29.7794 177.127 29.6366 177.178 29.4549L185.589 3.1345C185.666 2.87493 185.835 2.74515 186.095 2.74515H192.208C192.467 2.74515 192.636 2.87493 192.714 3.1345L201.124 29.4549C201.15 29.5068 201.163 29.5717 201.163 29.6496C201.163 29.8832 201.02 30 200.734 30H195.79ZM185.55 21.1616C185.524 21.3174 185.576 21.3953 185.705 21.3953H192.558C192.714 21.3953 192.766 21.3174 192.714 21.1616L189.21 9.5978C189.184 9.49397 189.145 9.45503 189.093 9.48099C189.041 9.48099 189.002 9.51993 188.976 9.5978L185.55 21.1616ZM215.837 2.70621C217.551 2.70621 219.056 3.05663 220.354 3.75747C221.652 4.45831 222.651 5.45766 223.352 6.75551C224.079 8.0274 224.442 9.49397 224.442 11.1552C224.442 12.7905 224.066 14.2311 223.313 15.4771C222.586 16.723 221.548 17.6964 220.198 18.3972C218.874 19.0721 217.343 19.4095 215.604 19.4095H210.075C209.945 19.4095 209.88 19.4744 209.88 19.6042V29.5328C209.88 29.6626 209.828 29.7794 209.725 29.8832C209.647 29.9611 209.543 30 209.413 30H204.858C204.728 30 204.611 29.9611 204.507 29.8832C204.429 29.7794 204.39 29.6626 204.39 29.5328V3.17344C204.39 3.04365 204.429 2.93983 204.507 2.86195C204.611 2.75813 204.728 2.70621 204.858 2.70621H215.837ZM215.02 15.0098C216.214 15.0098 217.174 14.6724 217.901 13.9975C218.628 13.2967 218.991 12.3882 218.991 11.272C218.991 10.1299 218.628 9.20844 217.901 8.5076C217.174 7.80676 216.214 7.45634 215.02 7.45634H210.075C209.945 7.45634 209.88 7.52124 209.88 7.65102V14.8152C209.88 14.9449 209.945 15.0098 210.075 15.0098H215.02ZM242.976 30C242.717 30 242.548 29.8702 242.47 29.6106L241.302 25.795C241.25 25.6911 241.185 25.6392 241.107 25.6392H231.529C231.451 25.6392 231.386 25.6911 231.334 25.795L230.205 29.6106C230.127 29.8702 229.959 30 229.699 30H224.754C224.599 30 224.482 29.9611 224.404 29.8832C224.326 29.7794 224.313 29.6366 224.365 29.4549L232.775 3.1345C232.853 2.87493 233.022 2.74515 233.281 2.74515H239.394C239.654 2.74515 239.822 2.87493 239.9 3.1345L248.31 29.4549C248.336 29.5068 248.349 29.5717 248.349 29.6496C248.349 29.8832 248.206 30 247.921 30H242.976ZM232.736 21.1616C232.71 21.3174 232.762 21.3953 232.892 21.3953H239.744C239.9 21.3953 239.952 21.3174 239.9 21.1616L236.396 9.5978C236.37 9.49397 236.331 9.45503 236.279 9.48099C236.227 9.48099 236.188 9.51993 236.162 9.5978L232.736 21.1616ZM260.513 30.3115C258.489 30.3115 256.711 29.9221 255.179 29.1434C253.648 28.3388 252.467 27.2226 251.636 25.795C250.805 24.3673 250.39 22.7191 250.39 20.8502V11.8561C250.39 9.98715 250.805 8.33888 251.636 6.91125C252.467 5.48361 253.648 4.38044 255.179 3.60173C256.711 2.82302 258.489 2.43367 260.513 2.43367C262.512 2.43367 264.264 2.81004 265.77 3.56279C267.301 4.28959 268.482 5.34085 269.313 6.71657C270.169 8.06633 270.598 9.63673 270.598 11.4278C270.598 11.6614 270.442 11.8041 270.13 11.8561L265.575 12.1286H265.497C265.237 12.1286 265.108 11.9858 265.108 11.7003C265.108 10.3246 264.679 9.22142 263.823 8.3908C262.992 7.56017 261.889 7.14486 260.513 7.14486C259.112 7.14486 257.982 7.56017 257.126 8.3908C256.295 9.22142 255.88 10.3246 255.88 11.7003V21.0838C255.88 22.4335 256.295 23.5237 257.126 24.3544C257.982 25.185 259.112 25.6003 260.513 25.6003C261.889 25.6003 262.992 25.185 263.823 24.3544C264.679 23.5237 265.108 22.4335 265.108 21.0838C265.108 20.7982 265.263 20.6555 265.575 20.6555L270.13 20.8502C270.26 20.8502 270.364 20.8891 270.442 20.967C270.546 21.0448 270.598 21.1357 270.598 21.2395C270.598 23.0305 270.169 24.6139 269.313 25.9896C268.482 27.3654 267.301 28.4296 265.77 29.1824C264.264 29.9351 262.512 30.3115 260.513 30.3115ZM293.546 6.98912C293.546 7.1189 293.494 7.23571 293.39 7.33954C293.312 7.41741 293.209 7.45634 293.079 7.45634H280.308C280.178 7.45634 280.113 7.52124 280.113 7.65102V13.686C280.113 13.8158 280.178 13.8807 280.308 13.8807H288.679C288.809 13.8807 288.913 13.9326 288.991 14.0364C289.094 14.1143 289.146 14.2181 289.146 14.3479V18.1247C289.146 18.2545 289.094 18.3713 288.991 18.4751C288.913 18.553 288.809 18.5919 288.679 18.5919H280.308C280.178 18.5919 280.113 18.6568 280.113 18.7866V25.0941C280.113 25.2239 280.178 25.2888 280.308 25.2888H293.079C293.209 25.2888 293.312 25.3407 293.39 25.4445C293.494 25.5224 293.546 25.6262 293.546 25.756V29.5328C293.546 29.6626 293.494 29.7794 293.39 29.8832C293.312 29.9611 293.209 30 293.079 30H275.091C274.961 30 274.844 29.9611 274.74 29.8832C274.662 29.7794 274.623 29.6626 274.623 29.5328V3.21237C274.623 3.08259 274.662 2.97876 274.74 2.90089C274.844 2.79706 274.961 2.74515 275.091 2.74515H293.079C293.209 2.74515 293.312 2.79706 293.39 2.90089C293.494 2.97876 293.546 3.08259 293.546 3.21237V6.98912Z" fill="white"/>
</svg>
