<svg width="296" height="63" viewBox="0 0 296 63" fill="none" xmlns="http://www.w3.org/2000/svg">
<path d="M46.8229 61.251C49.6459 61.251 51.9349 58.962 51.9349 56.139V6.11198C51.9349 3.28898 49.6459 0.999977 46.8229 0.999977C43.9999 0.999977 41.7109 3.28898 41.7109 6.11198V56.139C41.7109 58.962 43.9999 61.251 46.8229 61.251Z" fill="#78DE00"/>
<path d="M16.1973 33.7625C16.1973 36.5855 18.4863 38.8745 21.3093 38.8745H65.6163C68.4393 38.8745 70.7273 36.5855 70.7273 33.7625C70.7273 30.9395 68.4393 28.6505 65.6163 28.6505H21.3093C18.4863 28.6505 16.1973 30.9395 16.1973 33.7625Z" fill="#C7F403"/>
<path d="M2.40618 50.5289C4.40218 52.5249 7.63918 52.5249 9.63518 50.5289L50.4382 9.72588C52.4342 7.72988 52.4342 4.49388 50.4382 2.49688C48.4412 0.500876 45.2052 0.500876 43.2092 2.49688L2.40618 43.2999C0.41018 45.2959 0.41018 48.5329 2.40618 50.5289Z" fill="#78DE00"/>
<path d="M90.3244 40.0785H89.3127C89.2529 39.7875 89.1482 39.5318 88.9986 39.3115C88.8517 39.0912 88.6722 38.9063 88.4601 38.7567C88.2507 38.6044 88.0182 38.4902 87.7625 38.4141C87.5069 38.3379 87.2404 38.2998 86.963 38.2998C86.4571 38.2998 85.9989 38.4277 85.5882 38.6833C85.1803 38.939 84.8553 39.3156 84.6132 39.8133C84.3739 40.311 84.2542 40.9215 84.2542 41.645C84.2542 42.3684 84.3739 42.9789 84.6132 43.4766C84.8553 43.9743 85.1803 44.351 85.5882 44.6066C85.9989 44.8622 86.4571 44.9901 86.963 44.9901C87.2404 44.9901 87.5069 44.952 87.7625 44.8758C88.0182 44.7997 88.2507 44.6868 88.4601 44.5373C88.6722 44.385 88.8517 44.1987 88.9986 43.9784C89.1482 43.7554 89.2529 43.4997 89.3127 43.2114H90.3244C90.2482 43.6384 90.1095 44.0205 89.9083 44.3578C89.707 44.695 89.4568 44.9819 89.1577 45.2185C88.8585 45.4524 88.5227 45.6305 88.1501 45.7529C87.7802 45.8753 87.3845 45.9365 86.963 45.9365C86.2504 45.9365 85.6168 45.7624 85.062 45.4143C84.5072 45.0662 84.0707 44.5712 83.7525 43.9294C83.4343 43.2876 83.2752 42.5261 83.2752 41.645C83.2752 40.7638 83.4343 40.0023 83.7525 39.3605C84.0707 38.7187 84.5072 38.2237 85.062 37.8756C85.6168 37.5275 86.2504 37.3534 86.963 37.3534C87.3845 37.3534 87.7802 37.4146 88.1501 37.537C88.5227 37.6594 88.8585 37.8389 89.1577 38.0755C89.4568 38.3094 89.707 38.5949 89.9083 38.9322C90.1095 39.2667 90.2482 39.6488 90.3244 40.0785ZM94.3742 45.9528C93.8085 45.9528 93.3122 45.8182 92.8852 45.5489C92.461 45.2797 92.1292 44.903 91.8899 44.419C91.6533 43.9349 91.535 43.3692 91.535 42.7219C91.535 42.0692 91.6533 41.4995 91.8899 41.0126C92.1292 40.5258 92.461 40.1478 92.8852 39.8786C93.3122 39.6093 93.8085 39.4747 94.3742 39.4747C94.9399 39.4747 95.4349 39.6093 95.8591 39.8786C96.2861 40.1478 96.6179 40.5258 96.8545 41.0126C97.0938 41.4995 97.2135 42.0692 97.2135 42.7219C97.2135 43.3692 97.0938 43.9349 96.8545 44.419C96.6179 44.903 96.2861 45.2797 95.8591 45.5489C95.4349 45.8182 94.9399 45.9528 94.3742 45.9528ZM94.3742 45.088C94.8039 45.088 95.1575 44.9778 95.4349 44.7575C95.7123 44.5373 95.9176 44.2476 96.0509 43.8886C96.1841 43.5296 96.2507 43.1407 96.2507 42.7219C96.2507 42.3031 96.1841 41.9128 96.0509 41.5511C95.9176 41.1894 95.7123 40.8971 95.4349 40.6741C95.1575 40.4511 94.8039 40.3395 94.3742 40.3395C93.9445 40.3395 93.591 40.4511 93.3136 40.6741C93.0362 40.8971 92.8308 41.1894 92.6976 41.5511C92.5643 41.9128 92.4977 42.3031 92.4977 42.7219C92.4977 43.1407 92.5643 43.5296 92.6976 43.8886C92.8308 44.2476 93.0362 44.5373 93.3136 44.7575C93.591 44.9778 93.9445 45.088 94.3742 45.088ZM99.6458 42.0529V45.8223H98.6831V39.5563H99.6132V40.5354H99.6948C99.8416 40.2172 100.065 39.9615 100.364 39.7684C100.663 39.5726 101.049 39.4747 101.522 39.4747C101.947 39.4747 102.318 39.5617 102.636 39.7358C102.954 39.9071 103.202 40.1682 103.378 40.519C103.555 40.8672 103.644 41.3077 103.644 41.8408V45.8223H102.681V41.906C102.681 41.4138 102.553 41.0303 102.297 40.7556C102.042 40.4782 101.691 40.3395 101.245 40.3395C100.938 40.3395 100.663 40.4062 100.421 40.5394C100.182 40.6727 99.9926 40.8672 99.8539 41.1228C99.7152 41.3784 99.6458 41.6885 99.6458 42.0529ZM108.128 39.5563V40.3722H104.881V39.5563H108.128ZM105.827 38.0551H106.79V44.0273C106.79 44.2993 106.829 44.5033 106.908 44.6392C106.99 44.7725 107.093 44.8622 107.218 44.9085C107.346 44.952 107.481 44.9737 107.622 44.9737C107.728 44.9737 107.815 44.9683 107.883 44.9574C107.951 44.9438 108.006 44.933 108.046 44.9248L108.242 45.7896C108.177 45.8141 108.086 45.8386 107.969 45.8631C107.852 45.8903 107.704 45.9039 107.524 45.9039C107.252 45.9039 106.986 45.8454 106.725 45.7284C106.466 45.6115 106.251 45.4334 106.08 45.194C105.911 44.9547 105.827 44.6528 105.827 44.2884V38.0551ZM109.576 45.8223V39.5563H110.506V40.5027H110.571C110.686 40.1927 110.892 39.9411 111.192 39.748C111.491 39.5549 111.828 39.4584 112.203 39.4584C112.274 39.4584 112.362 39.4598 112.468 39.4625C112.574 39.4652 112.655 39.4693 112.709 39.4747V40.4538C112.676 40.4456 112.602 40.4334 112.485 40.4171C112.371 40.398 112.249 40.3885 112.122 40.3885C111.817 40.3885 111.545 40.4524 111.306 40.5802C111.069 40.7053 110.882 40.8794 110.743 41.1024C110.607 41.3227 110.539 41.5742 110.539 41.8571V45.8223H109.576ZM115.694 45.9691C115.297 45.9691 114.937 45.8943 114.613 45.7448C114.29 45.5925 114.033 45.3735 113.842 45.088C113.652 44.7997 113.557 44.4516 113.557 44.0436C113.557 43.6847 113.627 43.3937 113.769 43.1707C113.91 42.9449 114.099 42.7682 114.336 42.6403C114.572 42.5125 114.833 42.4173 115.119 42.3548C115.407 42.2895 115.697 42.2378 115.988 42.1998C116.369 42.1508 116.677 42.1141 116.914 42.0896C117.153 42.0624 117.327 42.0175 117.436 41.955C117.548 41.8924 117.603 41.7837 117.603 41.6286V41.596C117.603 41.1935 117.493 40.8807 117.273 40.6577C117.055 40.4347 116.725 40.3232 116.282 40.3232C115.822 40.3232 115.462 40.4239 115.201 40.6251C114.94 40.8264 114.756 41.0412 114.65 41.2697L113.736 40.9433C113.899 40.5626 114.117 40.2661 114.389 40.054C114.663 39.8391 114.963 39.6896 115.286 39.6053C115.613 39.5182 115.934 39.4747 116.249 39.4747C116.45 39.4747 116.681 39.4992 116.943 39.5481C117.206 39.5944 117.461 39.6909 117.705 39.8378C117.953 39.9846 118.158 40.2063 118.321 40.5027C118.485 40.7992 118.566 41.1962 118.566 41.6939V45.8223H117.603V44.9737H117.554C117.489 45.1097 117.38 45.2552 117.228 45.4102C117.076 45.5653 116.873 45.6972 116.62 45.8059C116.367 45.9147 116.059 45.9691 115.694 45.9691ZM115.841 45.1043C116.222 45.1043 116.543 45.0295 116.804 44.8799C117.068 44.7303 117.266 44.5373 117.399 44.3006C117.535 44.064 117.603 43.8152 117.603 43.5541V42.673C117.563 42.7219 117.473 42.7668 117.334 42.8076C117.198 42.8457 117.04 42.8797 116.861 42.9096C116.684 42.9368 116.511 42.9612 116.343 42.983C116.177 43.002 116.042 43.0184 115.939 43.032C115.689 43.0646 115.455 43.1176 115.237 43.1911C115.022 43.2618 114.848 43.3692 114.715 43.5133C114.585 43.6547 114.519 43.8478 114.519 44.0926C114.519 44.4271 114.643 44.68 114.891 44.8514C115.141 45.02 115.458 45.1043 115.841 45.1043ZM122.869 45.9528C122.281 45.9528 121.776 45.8141 121.351 45.5367C120.927 45.2593 120.601 44.8772 120.372 44.3904C120.144 43.9036 120.03 43.3474 120.03 42.7219C120.03 42.0855 120.147 41.5239 120.38 41.0371C120.617 40.5476 120.946 40.1655 121.368 39.8908C121.792 39.6134 122.287 39.4747 122.853 39.4747C123.293 39.4747 123.69 39.5563 124.044 39.7195C124.397 39.8827 124.687 40.1111 124.913 40.4048C125.138 40.6985 125.278 41.0412 125.333 41.4328H124.37C124.297 41.1473 124.133 40.8943 123.881 40.6741C123.63 40.4511 123.293 40.3395 122.869 40.3395C122.494 40.3395 122.164 40.4375 121.882 40.6333C121.602 40.8264 121.383 41.0997 121.225 41.4532C121.07 41.8041 120.992 42.2161 120.992 42.6893C120.992 43.1734 121.068 43.5949 121.221 43.9539C121.376 44.3129 121.593 44.5916 121.873 44.7902C122.156 44.9887 122.488 45.088 122.869 45.088C123.119 45.088 123.346 45.0445 123.55 44.9574C123.754 44.8704 123.927 44.7453 124.068 44.5821C124.21 44.419 124.31 44.2231 124.37 43.9947H125.333C125.278 44.3646 125.144 44.6977 124.929 44.9941C124.717 45.2879 124.435 45.5217 124.085 45.6958C123.736 45.8671 123.331 45.9528 122.869 45.9528ZM129.465 39.5563V40.3722H126.218V39.5563H129.465ZM127.164 38.0551H128.127V44.0273C128.127 44.2993 128.167 44.5033 128.246 44.6392C128.327 44.7725 128.43 44.8622 128.556 44.9085C128.683 44.952 128.818 44.9737 128.959 44.9737C129.065 44.9737 129.152 44.9683 129.22 44.9574C129.288 44.9438 129.343 44.933 129.384 44.9248L129.579 45.7896C129.514 45.8141 129.423 45.8386 129.306 45.8631C129.189 45.8903 129.041 45.9039 128.861 45.9039C128.59 45.9039 128.323 45.8454 128.062 45.7284C127.804 45.6115 127.589 45.4334 127.417 45.194C127.249 44.9547 127.164 44.6528 127.164 44.2884V38.0551ZM134.275 45.8223V37.4676H135.287V44.9248H139.17V45.8223H134.275ZM140.606 45.8223V39.5563H141.569V45.8223H140.606ZM141.096 38.512C140.908 38.512 140.746 38.4481 140.61 38.3202C140.477 38.1924 140.41 38.0388 140.41 37.8593C140.41 37.6798 140.477 37.5261 140.61 37.3983C140.746 37.2705 140.908 37.2066 141.096 37.2066C141.283 37.2066 141.444 37.2705 141.577 37.3983C141.713 37.5261 141.781 37.6798 141.781 37.8593C141.781 38.0388 141.713 38.1924 141.577 38.3202C141.444 38.4481 141.283 38.512 141.096 38.512ZM146.122 39.5563V40.3722H142.745V39.5563H146.122ZM143.756 45.8223V38.6915C143.756 38.3325 143.841 38.0333 144.009 37.794C144.178 37.5547 144.397 37.3752 144.666 37.2555C144.935 37.1359 145.22 37.076 145.519 37.076C145.755 37.076 145.948 37.0951 146.098 37.1331C146.248 37.1712 146.359 37.2066 146.433 37.2392L146.155 38.0714C146.106 38.0551 146.038 38.0347 145.951 38.0102C145.867 37.9857 145.755 37.9735 145.617 37.9735C145.298 37.9735 145.069 38.0537 144.927 38.2142C144.789 38.3746 144.719 38.6099 144.719 38.9199V45.8223H143.756ZM149.841 45.9528C149.237 45.9528 148.716 45.8195 148.278 45.553C147.843 45.2838 147.507 44.9085 147.271 44.4271C147.037 43.943 146.92 43.3801 146.92 42.7382C146.92 42.0964 147.037 41.5307 147.271 41.0412C147.507 40.549 147.837 40.1655 148.258 39.8908C148.682 39.6134 149.177 39.4747 149.743 39.4747C150.069 39.4747 150.392 39.5291 150.71 39.6379C151.028 39.7467 151.318 39.9234 151.579 40.1682C151.84 40.4103 152.048 40.7312 152.203 41.131C152.358 41.5307 152.435 42.023 152.435 42.6077V43.0156H147.605V42.1834H151.456C151.456 41.8299 151.386 41.5144 151.244 41.237C151.105 40.9596 150.907 40.7407 150.649 40.5802C150.393 40.4198 150.091 40.3395 149.743 40.3395C149.359 40.3395 149.028 40.4347 148.748 40.6251C148.47 40.8128 148.257 41.0575 148.107 41.3594C147.958 41.6613 147.883 41.9849 147.883 42.3303V42.8851C147.883 43.3583 147.964 43.7594 148.128 44.0885C148.293 44.4149 148.523 44.6637 148.817 44.835C149.111 45.0037 149.452 45.088 149.841 45.088C150.094 45.088 150.322 45.0526 150.526 44.9819C150.733 44.9085 150.911 44.7997 151.061 44.6556C151.21 44.5087 151.326 44.3265 151.407 44.1089L152.337 44.37C152.24 44.6855 152.075 44.9629 151.844 45.2022C151.613 45.4388 151.327 45.6237 150.987 45.757C150.647 45.8875 150.265 45.9528 149.841 45.9528ZM159.676 45.9528C159.089 45.9528 158.583 45.8141 158.159 45.5367C157.734 45.2593 157.408 44.8772 157.18 44.3904C156.951 43.9036 156.837 43.3474 156.837 42.7219C156.837 42.0855 156.954 41.5239 157.188 41.0371C157.424 40.5476 157.754 40.1655 158.175 39.8908C158.599 39.6134 159.094 39.4747 159.66 39.4747C160.101 39.4747 160.498 39.5563 160.851 39.7195C161.205 39.8827 161.494 40.1111 161.72 40.4048C161.946 40.6985 162.086 41.0412 162.14 41.4328H161.178C161.104 41.1473 160.941 40.8943 160.688 40.6741C160.438 40.4511 160.101 40.3395 159.676 40.3395C159.301 40.3395 158.972 40.4375 158.689 40.6333C158.409 40.8264 158.19 41.0997 158.032 41.4532C157.877 41.8041 157.8 42.2161 157.8 42.6893C157.8 43.1734 157.876 43.5949 158.028 43.9539C158.183 44.3129 158.401 44.5916 158.681 44.7902C158.964 44.9887 159.296 45.088 159.676 45.088C159.926 45.088 160.154 45.0445 160.358 44.9574C160.562 44.8704 160.734 44.7453 160.876 44.5821C161.017 44.419 161.118 44.2231 161.178 43.9947H162.14C162.086 44.3646 161.951 44.6977 161.736 44.9941C161.524 45.2879 161.243 45.5217 160.892 45.6958C160.544 45.8671 160.139 45.9528 159.676 45.9528ZM164.168 48.172C164.005 48.172 163.859 48.1584 163.731 48.1312C163.603 48.1067 163.515 48.0823 163.466 48.0578L163.711 47.2093C163.945 47.2691 164.151 47.2909 164.331 47.2745C164.51 47.2582 164.669 47.178 164.808 47.0338C164.95 46.8924 165.079 46.6626 165.196 46.3444L165.375 45.8549L163.058 39.5563H164.102L165.832 44.5495H165.897L167.627 39.5563H168.671L166.012 46.7361C165.892 47.0597 165.744 47.3276 165.567 47.5397C165.39 47.7545 165.185 47.9136 164.951 48.017C164.72 48.1203 164.459 48.172 164.168 48.172ZM172.263 45.9528C171.676 45.9528 171.17 45.8141 170.746 45.5367C170.321 45.2593 169.995 44.8772 169.767 44.3904C169.538 43.9036 169.424 43.3474 169.424 42.7219C169.424 42.0855 169.541 41.5239 169.775 41.0371C170.011 40.5476 170.341 40.1655 170.762 39.8908C171.186 39.6134 171.681 39.4747 172.247 39.4747C172.688 39.4747 173.085 39.5563 173.438 39.7195C173.792 39.8827 174.081 40.1111 174.307 40.4048C174.533 40.6985 174.673 41.0412 174.727 41.4328H173.765C173.691 41.1473 173.528 40.8943 173.275 40.6741C173.025 40.4511 172.688 40.3395 172.263 40.3395C171.888 40.3395 171.559 40.4375 171.276 40.6333C170.996 40.8264 170.777 41.0997 170.619 41.4532C170.464 41.8041 170.387 42.2161 170.387 42.6893C170.387 43.1734 170.463 43.5949 170.615 43.9539C170.77 44.3129 170.988 44.5916 171.268 44.7902C171.551 44.9887 171.883 45.088 172.263 45.088C172.513 45.088 172.741 45.0445 172.945 44.9574C173.149 44.8704 173.321 44.7453 173.463 44.5821C173.604 44.419 173.705 44.2231 173.765 43.9947H174.727C174.673 44.3646 174.538 44.6977 174.323 44.9941C174.111 45.2879 173.83 45.5217 173.479 45.6958C173.131 45.8671 172.726 45.9528 172.263 45.9528ZM177.097 37.4676V45.8223H176.135V37.4676H177.097ZM181.488 45.9528C180.884 45.9528 180.363 45.8195 179.925 45.553C179.49 45.2838 179.154 44.9085 178.918 44.4271C178.684 43.943 178.567 43.3801 178.567 42.7382C178.567 42.0964 178.684 41.5307 178.918 41.0412C179.154 40.549 179.483 40.1655 179.905 39.8908C180.329 39.6134 180.824 39.4747 181.39 39.4747C181.716 39.4747 182.039 39.5291 182.357 39.6379C182.675 39.7467 182.965 39.9234 183.226 40.1682C183.487 40.4103 183.695 40.7312 183.85 41.131C184.005 41.5307 184.082 42.023 184.082 42.6077V43.0156H179.252V42.1834H183.103C183.103 41.8299 183.033 41.5144 182.891 41.237C182.752 40.9596 182.554 40.7407 182.296 40.5802C182.04 40.4198 181.738 40.3395 181.39 40.3395C181.006 40.3395 180.675 40.4347 180.395 40.6251C180.117 40.8128 179.904 41.0575 179.754 41.3594C179.605 41.6613 179.53 41.9849 179.53 42.3303V42.8851C179.53 43.3583 179.611 43.7594 179.774 44.0885C179.94 44.4149 180.17 44.6637 180.464 44.835C180.758 45.0037 181.099 45.088 181.488 45.088C181.741 45.088 181.969 45.0526 182.173 44.9819C182.38 44.9085 182.558 44.7997 182.708 44.6556C182.857 44.5087 182.973 44.3265 183.054 44.1089L183.984 44.37C183.887 44.6855 183.722 44.9629 183.491 45.2022C183.26 45.4388 182.974 45.6237 182.634 45.757C182.294 45.8875 181.912 45.9528 181.488 45.9528ZM83.6015 51.4676H84.809L87.6483 58.4026H87.7462L90.5855 51.4676H91.793V59.8223H90.8466V53.4747H90.765L88.1542 59.8223H87.2404L84.6295 53.4747H84.548V59.8223H83.6015V51.4676ZM95.5348 59.9691C95.1377 59.9691 94.7774 59.8943 94.4538 59.7448C94.1301 59.5925 93.8731 59.3735 93.6828 59.088C93.4924 58.7997 93.3972 58.4516 93.3972 58.0436C93.3972 57.6847 93.4679 57.3937 93.6093 57.1707C93.7508 56.9449 93.9398 56.7682 94.1764 56.6403C94.413 56.5125 94.6741 56.4173 94.9596 56.3548C95.2479 56.2895 95.5375 56.2378 95.8285 56.1998C96.2093 56.1508 96.5179 56.1141 96.7546 56.0896C96.9939 56.0624 97.1679 56.0175 97.2767 55.955C97.3882 55.8924 97.444 55.7837 97.444 55.6286V55.596C97.444 55.1935 97.3338 54.8807 97.1135 54.6577C96.896 54.4347 96.5655 54.3232 96.1222 54.3232C95.6626 54.3232 95.3023 54.4239 95.0412 54.6251C94.7801 54.8264 94.5965 55.0412 94.4905 55.2697L93.5767 54.9433C93.7399 54.5626 93.9574 54.2661 94.2294 54.054C94.5041 53.8391 94.8032 53.6896 95.1269 53.6053C95.4532 53.5182 95.7741 53.4747 96.0896 53.4747C96.2909 53.4747 96.522 53.4992 96.7831 53.5481C97.0469 53.5944 97.3012 53.6909 97.546 53.8378C97.7934 53.9846 97.9988 54.2063 98.1619 54.5027C98.3251 54.7992 98.4067 55.1962 98.4067 55.6939V59.8223H97.444V58.9737H97.395C97.3297 59.1097 97.221 59.2552 97.0687 59.4102C96.9164 59.5653 96.7138 59.6972 96.4608 59.8059C96.2079 59.9147 95.8992 59.9691 95.5348 59.9691ZM95.6817 59.1043C96.0624 59.1043 96.3833 59.0295 96.6444 58.8799C96.9082 58.7303 97.1067 58.5373 97.24 58.3006C97.376 58.064 97.444 57.8152 97.444 57.5541V56.673C97.4032 56.7219 97.3134 56.7668 97.1747 56.8076C97.0388 56.8457 96.881 56.8797 96.7015 56.9096C96.5247 56.9368 96.3521 56.9612 96.1834 56.983C96.0175 57.002 95.8829 57.0184 95.7796 57.032C95.5294 57.0646 95.2955 57.1176 95.0779 57.1911C94.8631 57.2618 94.689 57.3692 94.5558 57.5133C94.4252 57.6547 94.3599 57.8478 94.3599 58.0926C94.3599 58.4271 94.4837 58.68 94.7312 58.8514C94.9814 59.02 95.2982 59.1043 95.6817 59.1043ZM101.127 56.0529V59.8223H100.164V53.5563H101.094V54.5354H101.176C101.322 54.2172 101.545 53.9615 101.845 53.7684C102.144 53.5726 102.53 53.4747 103.003 53.4747C103.427 53.4747 103.799 53.5617 104.117 53.7358C104.435 53.9071 104.683 54.1682 104.859 54.519C105.036 54.8672 105.124 55.3077 105.124 55.8408V59.8223H104.162V55.906C104.162 55.4138 104.034 55.0303 103.778 54.7556C103.523 54.4782 103.172 54.3395 102.726 54.3395C102.418 54.3395 102.144 54.4062 101.902 54.5394C101.662 54.6727 101.473 54.8672 101.335 55.1228C101.196 55.3784 101.127 55.6885 101.127 56.0529ZM108.728 59.9691C108.331 59.9691 107.97 59.8943 107.647 59.7448C107.323 59.5925 107.066 59.3735 106.876 59.088C106.685 58.7997 106.59 58.4516 106.59 58.0436C106.59 57.6847 106.661 57.3937 106.802 57.1707C106.944 56.9449 107.133 56.7682 107.369 56.6403C107.606 56.5125 107.867 56.4173 108.152 56.3548C108.441 56.2895 108.73 56.2378 109.021 56.1998C109.402 56.1508 109.711 56.1141 109.947 56.0896C110.187 56.0624 110.361 56.0175 110.47 55.955C110.581 55.8924 110.637 55.7837 110.637 55.6286V55.596C110.637 55.1935 110.527 54.8807 110.306 54.6577C110.089 54.4347 109.758 54.3232 109.315 54.3232C108.855 54.3232 108.495 54.4239 108.234 54.6251C107.973 54.8264 107.789 55.0412 107.683 55.2697L106.769 54.9433C106.933 54.5626 107.15 54.2661 107.422 54.054C107.697 53.8391 107.996 53.6896 108.32 53.6053C108.646 53.5182 108.967 53.4747 109.282 53.4747C109.484 53.4747 109.715 53.4992 109.976 53.5481C110.24 53.5944 110.494 53.6909 110.739 53.8378C110.986 53.9846 111.192 54.2063 111.355 54.5027C111.518 54.7992 111.6 55.1962 111.6 55.6939V59.8223H110.637V58.9737H110.588C110.523 59.1097 110.414 59.2552 110.261 59.4102C110.109 59.5653 109.907 59.6972 109.654 59.8059C109.401 59.9147 109.092 59.9691 108.728 59.9691ZM108.874 59.1043C109.255 59.1043 109.576 59.0295 109.837 58.8799C110.101 58.7303 110.3 58.5373 110.433 58.3006C110.569 58.064 110.637 57.8152 110.637 57.5541V56.673C110.596 56.7219 110.506 56.7668 110.368 56.8076C110.232 56.8457 110.074 56.8797 109.894 56.9096C109.718 56.9368 109.545 56.9612 109.376 56.983C109.21 57.002 109.076 57.0184 108.972 57.032C108.722 57.0646 108.488 57.1176 108.271 57.1911C108.056 57.2618 107.882 57.3692 107.749 57.5133C107.618 57.6547 107.553 57.8478 107.553 58.0926C107.553 58.4271 107.676 58.68 107.924 58.8514C108.174 59.02 108.491 59.1043 108.874 59.1043ZM115.886 62.3025C115.421 62.3025 115.021 62.2427 114.687 62.123C114.352 62.0061 114.073 61.8511 113.85 61.658C113.63 61.4676 113.455 61.2637 113.324 61.0461L114.091 60.5076C114.178 60.6218 114.288 60.7524 114.421 60.8992C114.555 61.0488 114.737 61.178 114.968 61.2868C115.202 61.3983 115.508 61.454 115.886 61.454C116.392 61.454 116.809 61.3316 117.138 61.0869C117.467 60.8421 117.632 60.4587 117.632 59.9365V58.6637H117.55C117.48 58.7779 117.379 58.9194 117.248 59.088C117.121 59.2539 116.936 59.4021 116.694 59.5326C116.454 59.6604 116.131 59.7244 115.723 59.7244C115.217 59.7244 114.763 59.6047 114.36 59.3654C113.96 59.126 113.644 58.7779 113.41 58.321C113.179 57.8642 113.063 57.3094 113.063 56.6566C113.063 56.0148 113.176 55.4559 113.402 54.98C113.627 54.5014 113.941 54.1315 114.344 53.8704C114.746 53.6066 115.211 53.4747 115.739 53.4747C116.147 53.4747 116.471 53.5427 116.71 53.6787C116.952 53.8119 117.137 53.9642 117.265 54.1356C117.395 54.3042 117.496 54.4429 117.567 54.5517H117.665V53.5563H118.595V60.0018C118.595 60.5402 118.472 60.9781 118.228 61.3153C117.985 61.6553 117.659 61.9041 117.248 62.0619C116.841 62.2223 116.386 62.3025 115.886 62.3025ZM115.853 58.8595C116.239 58.8595 116.566 58.7711 116.832 58.5944C117.099 58.4176 117.301 58.1633 117.44 57.8315C117.579 57.4997 117.648 57.1027 117.648 56.6403C117.648 56.1889 117.58 55.7905 117.444 55.4451C117.308 55.0997 117.107 54.8291 116.841 54.6333C116.574 54.4375 116.245 54.3395 115.853 54.3395C115.445 54.3395 115.105 54.4429 114.833 54.6496C114.564 54.8563 114.362 55.1337 114.226 55.4818C114.092 55.8299 114.026 56.2161 114.026 56.6403C114.026 57.0755 114.094 57.4603 114.23 57.7948C114.368 58.1266 114.572 58.3877 114.842 58.578C115.114 58.7657 115.451 58.8595 115.853 58.8595ZM122.984 59.9528C122.38 59.9528 121.86 59.8195 121.422 59.553C120.987 59.2838 120.651 58.9085 120.414 58.4271C120.18 57.943 120.063 57.3801 120.063 56.7382C120.063 56.0964 120.18 55.5307 120.414 55.0412C120.651 54.549 120.98 54.1655 121.401 53.8908C121.826 53.6134 122.321 53.4747 122.886 53.4747C123.213 53.4747 123.535 53.5291 123.853 53.6379C124.171 53.7467 124.461 53.9234 124.722 54.1682C124.983 54.4103 125.191 54.7312 125.346 55.131C125.501 55.5307 125.579 56.023 125.579 56.6077V57.0156H120.749V56.1834H124.6C124.6 55.8299 124.529 55.5144 124.387 55.237C124.249 54.9596 124.05 54.7407 123.792 54.5802C123.536 54.4198 123.234 54.3395 122.886 54.3395C122.503 54.3395 122.171 54.4347 121.891 54.6251C121.613 54.8128 121.4 55.0575 121.25 55.3594C121.101 55.6613 121.026 55.9849 121.026 56.3303V56.8851C121.026 57.3583 121.108 57.7594 121.271 58.0885C121.437 58.4149 121.666 58.6637 121.96 58.835C122.254 59.0037 122.595 59.088 122.984 59.088C123.237 59.088 123.465 59.0526 123.669 58.9819C123.876 58.9085 124.054 58.7997 124.204 58.6556C124.353 58.5087 124.469 58.3265 124.551 58.1089L125.481 58.37C125.383 58.6855 125.218 58.9629 124.987 59.2022C124.756 59.4388 124.47 59.6237 124.13 59.757C123.79 59.8875 123.408 59.9528 122.984 59.9528ZM127.043 59.8223V53.5563H127.973V54.5354H128.055C128.185 54.2008 128.396 53.9411 128.687 53.7562C128.978 53.5685 129.328 53.4747 129.736 53.4747C130.149 53.4747 130.493 53.5685 130.768 53.7562C131.045 53.9411 131.261 54.2008 131.416 54.5354H131.481C131.642 54.2117 131.883 53.9547 132.204 53.7644C132.524 53.5713 132.909 53.4747 133.358 53.4747C133.918 53.4747 134.377 53.6501 134.733 54.001C135.089 54.3491 135.267 54.8916 135.267 55.6286V59.8223H134.304V55.6286C134.304 55.1663 134.178 54.8359 133.925 54.6373C133.672 54.4388 133.374 54.3395 133.032 54.3395C132.591 54.3395 132.25 54.4728 132.008 54.7393C131.766 55.0031 131.645 55.3376 131.645 55.7429V59.8223H130.666V55.5307C130.666 55.1745 130.55 54.8875 130.319 54.67C130.088 54.4497 129.79 54.3395 129.425 54.3395C129.175 54.3395 128.941 54.4062 128.724 54.5394C128.509 54.6727 128.335 54.8576 128.202 55.0942C128.071 55.3281 128.006 55.5987 128.006 55.906V59.8223H127.043ZM139.655 59.9528C139.051 59.9528 138.53 59.8195 138.092 59.553C137.657 59.2838 137.321 58.9085 137.085 58.4271C136.851 57.943 136.734 57.3801 136.734 56.7382C136.734 56.0964 136.851 55.5307 137.085 55.0412C137.321 54.549 137.65 54.1655 138.072 53.8908C138.496 53.6134 138.991 53.4747 139.557 53.4747C139.883 53.4747 140.205 53.5291 140.523 53.6379C140.842 53.7467 141.131 53.9234 141.392 54.1682C141.653 54.4103 141.862 54.7312 142.017 55.131C142.172 55.5307 142.249 56.023 142.249 56.6077V57.0156H137.419V56.1834H141.27C141.27 55.8299 141.199 55.5144 141.058 55.237C140.919 54.9596 140.721 54.7407 140.462 54.5802C140.207 54.4198 139.905 54.3395 139.557 54.3395C139.173 54.3395 138.841 54.4347 138.561 54.6251C138.284 54.8128 138.07 55.0575 137.921 55.3594C137.771 55.6613 137.696 55.9849 137.696 56.3303V56.8851C137.696 57.3583 137.778 57.7594 137.941 58.0885C138.107 58.4149 138.337 58.6637 138.631 58.835C138.924 59.0037 139.266 59.088 139.655 59.088C139.908 59.088 140.136 59.0526 140.34 58.9819C140.547 58.9085 140.725 58.7997 140.874 58.6556C141.024 58.5087 141.139 58.3265 141.221 58.1089L142.151 58.37C142.053 58.6855 141.889 58.9629 141.658 59.2022C141.426 59.4388 141.141 59.6237 140.801 59.757C140.461 59.8875 140.079 59.9528 139.655 59.9528ZM144.676 56.0529V59.8223H143.714V53.5563H144.644V54.5354H144.725C144.872 54.2172 145.095 53.9615 145.394 53.7684C145.693 53.5726 146.08 53.4747 146.553 53.4747C146.977 53.4747 147.348 53.5617 147.667 53.7358C147.985 53.9071 148.232 54.1682 148.409 54.519C148.586 54.8672 148.674 55.3077 148.674 55.8408V59.8223H147.711V55.906C147.711 55.4138 147.584 55.0303 147.328 54.7556C147.072 54.4782 146.721 54.3395 146.275 54.3395C145.968 54.3395 145.693 54.4062 145.451 54.5394C145.212 54.6727 145.023 54.8672 144.884 55.1228C144.746 55.3784 144.676 55.6885 144.676 56.0529ZM153.158 53.5563V54.3722H149.911V53.5563H153.158ZM150.858 52.0551H151.82V58.0273C151.82 58.2993 151.86 58.5033 151.939 58.6392C152.02 58.7725 152.124 58.8622 152.249 58.9085C152.377 58.952 152.511 58.9737 152.653 58.9737C152.759 58.9737 152.846 58.9683 152.914 58.9574C152.982 58.9438 153.036 58.933 153.077 58.9248L153.273 59.7896C153.207 59.8141 153.116 59.8386 152.999 59.8631C152.882 59.8903 152.734 59.9039 152.555 59.9039C152.283 59.9039 152.016 59.8454 151.755 59.7284C151.497 59.6115 151.282 59.4334 151.111 59.194C150.942 58.9547 150.858 58.6528 150.858 58.2884V52.0551Z" fill="#231F20"/>
<path d="M102.291 30C102.032 30 101.863 29.8702 101.785 29.6106L100.617 25.795C100.565 25.6911 100.5 25.6392 100.422 25.6392H90.8442C90.7663 25.6392 90.7014 25.6911 90.6495 25.795L89.5204 29.6106C89.4425 29.8702 89.2738 30 89.0142 30H84.0694C83.9137 30 83.7968 29.9611 83.719 29.8832C83.6411 29.7794 83.6281 29.6366 83.68 29.4549L92.0901 3.1345C92.168 2.87493 92.3367 2.74515 92.5963 2.74515H98.7091C98.9687 2.74515 99.1374 2.87493 99.2153 3.1345L107.625 29.4549C107.651 29.5068 107.664 29.5717 107.664 29.6496C107.664 29.8832 107.522 30 107.236 30H102.291ZM92.0512 21.1616C92.0252 21.3174 92.0771 21.3953 92.2069 21.3953H99.0596C99.2153 21.3953 99.2672 21.3174 99.2153 21.1616L95.7111 9.5978C95.6852 9.49397 95.6462 9.45503 95.5943 9.48099C95.5424 9.48099 95.5035 9.51993 95.4775 9.5978L92.0512 21.1616ZM120.444 30.3115C118.445 30.3115 116.68 29.9221 115.149 29.1434C113.643 28.3647 112.462 27.2745 111.606 25.8728C110.775 24.4452 110.36 22.8099 110.36 20.967V3.21237C110.36 3.08259 110.399 2.97876 110.476 2.90089C110.58 2.79706 110.697 2.74515 110.827 2.74515H115.382C115.512 2.74515 115.616 2.79706 115.694 2.90089C115.798 2.97876 115.85 3.08259 115.85 3.21237V21.0059C115.85 22.3816 116.265 23.4978 117.096 24.3544C117.952 25.185 119.068 25.6003 120.444 25.6003C121.82 25.6003 122.923 25.185 123.753 24.3544C124.61 23.4978 125.038 22.3816 125.038 21.0059V3.21237C125.038 3.08259 125.077 2.97876 125.155 2.90089C125.259 2.79706 125.376 2.74515 125.506 2.74515H130.061C130.191 2.74515 130.295 2.79706 130.373 2.90089C130.476 2.97876 130.528 3.08259 130.528 3.21237V20.967C130.528 22.8099 130.1 24.4452 129.243 25.8728C128.413 27.2745 127.232 28.3647 125.7 29.1434C124.195 29.9221 122.443 30.3115 120.444 30.3115ZM144.391 30.3115C142.366 30.3115 140.588 29.9221 139.057 29.1434C137.526 28.3388 136.344 27.2226 135.514 25.795C134.683 24.3673 134.268 22.7191 134.268 20.8502V11.8561C134.268 9.98715 134.683 8.33888 135.514 6.91125C136.344 5.48361 137.526 4.38044 139.057 3.60173C140.588 2.82302 142.366 2.43367 144.391 2.43367C146.39 2.43367 148.142 2.81004 149.647 3.56279C151.179 4.28959 152.36 5.34085 153.191 6.71657C154.047 8.06633 154.475 9.63673 154.475 11.4278C154.475 11.6614 154.32 11.8041 154.008 11.8561L149.453 12.1286H149.375C149.115 12.1286 148.986 11.9858 148.986 11.7003C148.986 10.3246 148.557 9.22142 147.701 8.3908C146.87 7.56017 145.767 7.14486 144.391 7.14486C142.989 7.14486 141.86 7.56017 141.004 8.3908C140.173 9.22142 139.758 10.3246 139.758 11.7003V21.0838C139.758 22.4335 140.173 23.5237 141.004 24.3544C141.86 25.185 142.989 25.6003 144.391 25.6003C145.767 25.6003 146.87 25.185 147.701 24.3544C148.557 23.5237 148.986 22.4335 148.986 21.0838C148.986 20.7982 149.141 20.6555 149.453 20.6555L154.008 20.8502C154.138 20.8502 154.242 20.8891 154.32 20.967C154.424 21.0448 154.475 21.1357 154.475 21.2395C154.475 23.0305 154.047 24.6139 153.191 25.9896C152.36 27.3654 151.179 28.4296 149.647 29.1824C148.142 29.9351 146.39 30.3115 144.391 30.3115ZM177.003 2.74515C177.133 2.74515 177.237 2.79706 177.314 2.90089C177.418 2.97876 177.47 3.08259 177.47 3.21237V7.02805C177.47 7.15784 177.418 7.27464 177.314 7.37847C177.237 7.45634 177.133 7.49528 177.003 7.49528H170.034C169.904 7.49528 169.839 7.56017 169.839 7.68996V29.5328C169.839 29.6626 169.787 29.7794 169.683 29.8832C169.605 29.9611 169.501 30 169.372 30H164.816C164.686 30 164.57 29.9611 164.466 29.8832C164.388 29.7794 164.349 29.6626 164.349 29.5328V7.68996C164.349 7.56017 164.284 7.49528 164.154 7.49528H157.379C157.25 7.49528 157.133 7.45634 157.029 7.37847C156.951 7.27464 156.912 7.15784 156.912 7.02805V3.21237C156.912 3.08259 156.951 2.97876 157.029 2.90089C157.133 2.79706 157.25 2.74515 157.379 2.74515H177.003ZM195.79 30C195.53 30 195.361 29.8702 195.283 29.6106L194.115 25.795C194.064 25.6911 193.999 25.6392 193.921 25.6392H184.343C184.265 25.6392 184.2 25.6911 184.148 25.795L183.019 29.6106C182.941 29.8702 182.772 30 182.513 30H177.568C177.412 30 177.295 29.9611 177.217 29.8832C177.14 29.7794 177.127 29.6366 177.178 29.4549L185.589 3.1345C185.666 2.87493 185.835 2.74515 186.095 2.74515H192.208C192.467 2.74515 192.636 2.87493 192.714 3.1345L201.124 29.4549C201.15 29.5068 201.163 29.5717 201.163 29.6496C201.163 29.8832 201.02 30 200.734 30H195.79ZM185.55 21.1616C185.524 21.3174 185.576 21.3953 185.705 21.3953H192.558C192.714 21.3953 192.766 21.3174 192.714 21.1616L189.21 9.5978C189.184 9.49397 189.145 9.45503 189.093 9.48099C189.041 9.48099 189.002 9.51993 188.976 9.5978L185.55 21.1616ZM215.837 2.70621C217.551 2.70621 219.056 3.05663 220.354 3.75747C221.652 4.45831 222.651 5.45766 223.352 6.75551C224.079 8.0274 224.442 9.49397 224.442 11.1552C224.442 12.7905 224.066 14.2311 223.313 15.4771C222.586 16.723 221.548 17.6964 220.198 18.3972C218.874 19.0721 217.343 19.4095 215.604 19.4095H210.075C209.945 19.4095 209.88 19.4744 209.88 19.6042V29.5328C209.88 29.6626 209.828 29.7794 209.725 29.8832C209.647 29.9611 209.543 30 209.413 30H204.858C204.728 30 204.611 29.9611 204.507 29.8832C204.429 29.7794 204.39 29.6626 204.39 29.5328V3.17344C204.39 3.04365 204.429 2.93983 204.507 2.86195C204.611 2.75813 204.728 2.70621 204.858 2.70621H215.837ZM215.02 15.0098C216.214 15.0098 217.174 14.6724 217.901 13.9975C218.628 13.2967 218.991 12.3882 218.991 11.272C218.991 10.1299 218.628 9.20844 217.901 8.5076C217.174 7.80676 216.214 7.45634 215.02 7.45634H210.075C209.945 7.45634 209.88 7.52124 209.88 7.65102V14.8152C209.88 14.9449 209.945 15.0098 210.075 15.0098H215.02ZM242.976 30C242.717 30 242.548 29.8702 242.47 29.6106L241.302 25.795C241.25 25.6911 241.185 25.6392 241.107 25.6392H231.529C231.451 25.6392 231.386 25.6911 231.334 25.795L230.205 29.6106C230.127 29.8702 229.959 30 229.699 30H224.754C224.599 30 224.482 29.9611 224.404 29.8832C224.326 29.7794 224.313 29.6366 224.365 29.4549L232.775 3.1345C232.853 2.87493 233.022 2.74515 233.281 2.74515H239.394C239.654 2.74515 239.822 2.87493 239.9 3.1345L248.31 29.4549C248.336 29.5068 248.349 29.5717 248.349 29.6496C248.349 29.8832 248.206 30 247.921 30H242.976ZM232.736 21.1616C232.71 21.3174 232.762 21.3953 232.892 21.3953H239.744C239.9 21.3953 239.952 21.3174 239.9 21.1616L236.396 9.5978C236.37 9.49397 236.331 9.45503 236.279 9.48099C236.227 9.48099 236.188 9.51993 236.162 9.5978L232.736 21.1616ZM260.513 30.3115C258.489 30.3115 256.711 29.9221 255.179 29.1434C253.648 28.3388 252.467 27.2226 251.636 25.795C250.805 24.3673 250.39 22.7191 250.39 20.8502V11.8561C250.39 9.98715 250.805 8.33888 251.636 6.91125C252.467 5.48361 253.648 4.38044 255.179 3.60173C256.711 2.82302 258.489 2.43367 260.513 2.43367C262.512 2.43367 264.264 2.81004 265.77 3.56279C267.301 4.28959 268.482 5.34085 269.313 6.71657C270.169 8.06633 270.598 9.63673 270.598 11.4278C270.598 11.6614 270.442 11.8041 270.13 11.8561L265.575 12.1286H265.497C265.237 12.1286 265.108 11.9858 265.108 11.7003C265.108 10.3246 264.679 9.22142 263.823 8.3908C262.992 7.56017 261.889 7.14486 260.513 7.14486C259.112 7.14486 257.982 7.56017 257.126 8.3908C256.295 9.22142 255.88 10.3246 255.88 11.7003V21.0838C255.88 22.4335 256.295 23.5237 257.126 24.3544C257.982 25.185 259.112 25.6003 260.513 25.6003C261.889 25.6003 262.992 25.185 263.823 24.3544C264.679 23.5237 265.108 22.4335 265.108 21.0838C265.108 20.7982 265.263 20.6555 265.575 20.6555L270.13 20.8502C270.26 20.8502 270.364 20.8891 270.442 20.967C270.546 21.0448 270.598 21.1357 270.598 21.2395C270.598 23.0305 270.169 24.6139 269.313 25.9896C268.482 27.3654 267.301 28.4296 265.77 29.1824C264.264 29.9351 262.512 30.3115 260.513 30.3115ZM293.546 6.98912C293.546 7.1189 293.494 7.23571 293.39 7.33954C293.312 7.41741 293.209 7.45634 293.079 7.45634H280.308C280.178 7.45634 280.113 7.52124 280.113 7.65102V13.686C280.113 13.8158 280.178 13.8807 280.308 13.8807H288.679C288.809 13.8807 288.913 13.9326 288.991 14.0364C289.094 14.1143 289.146 14.2181 289.146 14.3479V18.1247C289.146 18.2545 289.094 18.3713 288.991 18.4751C288.913 18.553 288.809 18.5919 288.679 18.5919H280.308C280.178 18.5919 280.113 18.6568 280.113 18.7866V25.0941C280.113 25.2239 280.178 25.2888 280.308 25.2888H293.079C293.209 25.2888 293.312 25.3407 293.39 25.4445C293.494 25.5224 293.546 25.6262 293.546 25.756V29.5328C293.546 29.6626 293.494 29.7794 293.39 29.8832C293.312 29.9611 293.209 30 293.079 30H275.091C274.961 30 274.844 29.9611 274.74 29.8832C274.662 29.7794 274.623 29.6626 274.623 29.5328V3.21237C274.623 3.08259 274.662 2.97876 274.74 2.90089C274.844 2.79706 274.961 2.74515 275.091 2.74515H293.079C293.209 2.74515 293.312 2.79706 293.39 2.90089C293.494 2.97876 293.546 3.08259 293.546 3.21237V6.98912Z" fill="#231F20"/>
</svg>
